<svg width="752.639990234375px" height="131.039990234375px" xmlns="http://www.w3.org/2000/svg" viewBox="-126.31999511718749 9.480004882812494 752.639990234375 131.039990234375" style="background: rgba(0, 0, 0, 0) none repeat scroll 0% 0%;" preserveAspectRatio="xMidYMid"><defs><filter id="editing-metal-beveled"><feGaussianBlur stdDeviation="4" in="SourceAlpha" result="blur"></feGaussianBlur><feSpecularLighting surfaceScale="5" specularConstant="0.8" specularExponent="7.5" lighting-color="#fff" in="blur" result="specular"><fePointLight x="-250" y="-50" z="300"></fePointLight></feSpecularLighting><feComposite operator="in" in="specular" in2="SourceAlpha" result="comp"></feComposite><feComposite in="SourceGraphic" in2="comp" operator="arithmetic" k1="0" k2="1" k3="1" k4="0"></feComposite></filter></defs><g filter="url(#editing-metal-beveled)"><g transform="translate(-18.80078125, 104.955078125)"><path d="M7.68-19.26L7.68-23.23L31.55-39.42L31.55-34.37L12.29-21.38L12.29-21.12L31.55-8.13L31.55-3.07L7.68-19.26ZM47.55 5.18L47.55 5.18L47.55 5.18Q47.55 7.62 50.14 9.15L50.14 9.15L50.14 9.15Q52.74 10.69 57.73 10.69L57.73 10.69L57.73 10.69Q60.42 10.69 62.59 10.14L62.59 10.14L62.59 10.14Q64.77 9.60 66.30 8.70L66.30 8.70L66.30 8.70Q67.84 7.81 68.64 6.66L68.64 6.66L68.64 6.66Q69.44 5.50 69.44 4.29L69.44 4.29L69.44 4.29Q69.44 2.05 67.68 1.28L67.68 1.28L67.68 1.28Q65.92 0.51 62.34 0.51L62.34 0.51L56.26 0.51L56.26 0.51Q54.91 0.51 53.73 0.42L53.73 0.42L53.73 0.42Q52.54 0.32 51.52 0L51.52 0L51.52 0Q49.28 1.22 48.42 2.53L48.42 2.53L48.42 2.53Q47.55 3.84 47.55 5.18ZM43.01 5.70L43.01 5.70L43.01 5.70Q43.01 3.84 44.32 2.05L44.32 2.05L44.32 2.05Q45.63 0.26 48.13-1.22L48.13-1.22L48.13-1.47L48.13-1.47Q46.85-2.18 45.89-3.39L45.89-3.39L45.89-3.39Q44.93-4.61 44.93-6.59L44.93-6.59L44.93-6.59Q44.93-8.06 45.89-9.63L45.89-9.63L45.89-9.63Q46.85-11.20 48.64-12.42L48.64-12.42L48.64-12.67L48.64-12.67Q47.04-13.89 45.92-15.90L45.92-15.90L45.92-15.90Q44.80-17.92 44.80-20.74L44.80-20.74L44.80-20.74Q44.80-23.30 45.79-25.34L45.79-25.34L45.79-25.34Q46.78-27.39 48.45-28.83L48.45-28.83L48.45-28.83Q50.11-30.27 52.32-31.07L52.32-31.07L52.32-31.07Q54.53-31.87 57.02-31.87L57.02-31.87L57.02-31.87Q59.58-31.87 61.63-31.10L61.63-31.10L74.50-31.10L74.50-27.07L66.18-27.07L66.18-27.07Q67.26-25.92 68.16-24.26L68.16-24.26L68.16-24.26Q69.06-22.59 69.06-20.54L69.06-20.54L69.06-20.54Q69.06-18.05 68.13-16.06L68.13-16.06L68.13-16.06Q67.20-14.08 65.57-12.70L65.57-12.70L65.57-12.70Q63.94-11.33 61.73-10.59L61.73-10.59L61.73-10.59Q59.52-9.86 57.02-9.86L57.02-9.86L57.02-9.86Q55.81-9.86 54.43-10.14L54.43-10.14L54.43-10.14Q53.06-10.43 51.78-11.01L51.78-11.01L51.78-11.01Q49.34-9.47 49.34-7.42L49.34-7.42L49.34-7.42Q49.34-5.57 51.04-4.70L51.04-4.70L51.04-4.70Q52.74-3.84 55.81-3.84L55.81-3.84L62.78-3.84L62.78-3.84Q68.80-3.84 71.71-2.18L71.71-2.18L71.71-2.18Q74.62-0.51 74.62 3.46L74.62 3.46L74.62 3.46Q74.62 5.63 73.41 7.62L73.41 7.62L73.41 7.62Q72.19 9.60 69.95 11.07L69.95 11.07L69.95 11.07Q67.71 12.54 64.51 13.44L64.51 13.44L64.51 13.44Q61.31 14.34 57.34 14.34L57.34 14.34L57.34 14.34Q50.50 14.34 46.75 12.10L46.75 12.10L46.75 12.10Q43.01 9.86 43.01 5.70ZM57.02-13.38L57.02-13.38L57.02-13.38Q60.03-13.38 62.11-15.36L62.11-15.36L62.11-15.36Q64.19-17.34 64.19-20.74L64.19-20.74L64.19-20.74Q64.19-22.34 63.62-23.68L63.62-23.68L63.62-23.68Q63.04-25.02 62.08-25.98L62.08-25.98L62.08-25.98Q61.12-26.94 59.81-27.49L59.81-27.49L59.81-27.49Q58.50-28.03 57.02-28.03L57.02-28.03L57.02-28.03Q55.55-28.03 54.24-27.49L54.24-27.49L54.24-27.49Q52.93-26.94 51.97-25.98L51.97-25.98L51.97-25.98Q51.01-25.02 50.43-23.68L50.43-23.68L50.43-23.68Q49.86-22.34 49.86-20.74L49.86-20.74L49.86-20.74Q49.86-17.34 51.97-15.36L51.97-15.36L51.97-15.36Q54.08-13.38 57.02-13.38ZM81.98-8.06L81.98-8.06L81.98-8.06Q81.98-10.69 83.23-12.64L83.23-12.64L83.23-12.64Q84.48-14.59 87.20-16L87.20-16L87.20-16Q89.92-17.41 94.21-18.30L94.21-18.30L94.21-18.30Q98.50-19.20 104.51-19.71L104.51-19.71L104.51-19.71Q104.45-21.31 104-22.72L104-22.72L104-22.72Q103.55-24.13 102.59-25.18L102.59-25.18L102.59-25.18Q101.63-26.24 100.06-26.88L100.06-26.88L100.06-26.88Q98.50-27.52 96.26-27.52L96.26-27.52L96.26-27.52Q93.18-27.52 90.37-26.34L90.37-26.34L90.37-26.34Q87.55-25.15 85.38-23.81L85.38-23.81L83.33-27.39L83.33-27.39Q84.48-28.16 86.05-28.96L86.05-28.96L86.05-28.96Q87.62-29.76 89.38-30.40L89.38-30.40L89.38-30.40Q91.14-31.04 93.12-31.46L93.12-31.46L93.12-31.46Q95.10-31.87 97.15-31.87L97.15-31.87L97.15-31.87Q103.55-31.87 106.66-28.38L106.66-28.38L106.66-28.38Q109.76-24.90 109.76-19.07L109.76-19.07L109.76 0L105.47 0L105.02-4.22L104.83-4.22L104.83-4.22Q102.21-2.18 99.04-0.70L99.04-0.70L99.04-0.70Q95.87 0.77 92.54 0.77L92.54 0.77L92.54 0.77Q90.37 0.77 88.45 0.16L88.45 0.16L88.45 0.16Q86.53-0.45 85.09-1.57L85.09-1.57L85.09-1.57Q83.65-2.69 82.82-4.32L82.82-4.32L82.82-4.32Q81.98-5.95 81.98-8.06ZM87.10-8.45L87.10-8.45L87.10-8.45Q87.10-7.10 87.68-6.18L87.68-6.18L87.68-6.18Q88.26-5.25 89.18-4.64L89.18-4.64L89.18-4.64Q90.11-4.03 91.36-3.74L91.36-3.74L91.36-3.74Q92.61-3.46 93.95-3.46L93.95-3.46L93.95-3.46Q96.64-3.46 99.23-4.64L99.23-4.64L99.23-4.64Q101.82-5.82 104.51-8.06L104.51-8.06L104.51-16.26L104.51-16.26Q99.52-15.87 96.16-15.17L96.16-15.17L96.16-15.17Q92.80-14.46 90.78-13.47L90.78-13.47L90.78-13.47Q88.77-12.48 87.94-11.23L87.94-11.23L87.94-11.23Q87.10-9.98 87.10-8.45ZM124.54 0L124.54-31.10L128.90-31.10L129.34-23.74L129.54-23.74L129.54-23.74Q131.97-27.52 135.52-29.70L135.52-29.70L135.52-29.70Q139.07-31.87 143.42-31.87L143.42-31.87L143.42-31.87Q145.15-31.87 146.62-31.58L146.62-31.58L146.62-31.58Q148.10-31.30 149.57-30.59L149.57-30.59L148.35-26.05L148.35-26.05Q146.69-26.62 145.57-26.88L145.57-26.88L145.57-26.88Q144.45-27.14 142.59-27.14L142.59-27.14L142.59-27.14Q139.07-27.14 135.84-25.12L135.84-25.12L135.84-25.12Q132.61-23.10 129.79-18.24L129.79-18.24L129.79 0L124.54 0ZM162.75 5.18L162.75 5.18L162.75 5.18Q162.75 7.62 165.34 9.15L165.34 9.15L165.34 9.15Q167.94 10.69 172.93 10.69L172.93 10.69L172.93 10.69Q175.62 10.69 177.79 10.14L177.79 10.14L177.79 10.14Q179.97 9.60 181.50 8.70L181.50 8.70L181.50 8.70Q183.04 7.81 183.84 6.66L183.84 6.66L183.84 6.66Q184.64 5.50 184.64 4.29L184.64 4.29L184.64 4.29Q184.64 2.05 182.88 1.28L182.88 1.28L182.88 1.28Q181.12 0.51 177.54 0.51L177.54 0.51L171.46 0.51L171.46 0.51Q170.11 0.51 168.93 0.42L168.93 0.42L168.93 0.42Q167.74 0.32 166.72 0L166.72 0L166.72 0Q164.48 1.22 163.62 2.53L163.62 2.53L163.62 2.53Q162.75 3.84 162.75 5.18ZM158.21 5.70L158.21 5.70L158.21 5.70Q158.21 3.84 159.52 2.05L159.52 2.05L159.52 2.05Q160.83 0.26 163.33-1.22L163.33-1.22L163.33-1.47L163.33-1.47Q162.05-2.18 161.09-3.39L161.09-3.39L161.09-3.39Q160.13-4.61 160.13-6.59L160.13-6.59L160.13-6.59Q160.13-8.06 161.09-9.63L161.09-9.63L161.09-9.63Q162.05-11.20 163.84-12.42L163.84-12.42L163.84-12.67L163.84-12.67Q162.24-13.89 161.12-15.90L161.12-15.90L161.12-15.90Q160-17.92 160-20.74L160-20.74L160-20.74Q160-23.30 160.99-25.34L160.99-25.34L160.99-25.34Q161.98-27.39 163.65-28.83L163.65-28.83L163.65-28.83Q165.31-30.27 167.52-31.07L167.52-31.07L167.52-31.07Q169.73-31.87 172.22-31.87L172.22-31.87L172.22-31.87Q174.78-31.87 176.83-31.10L176.83-31.10L189.70-31.10L189.70-27.07L181.38-27.07L181.38-27.07Q182.46-25.92 183.36-24.26L183.36-24.26L183.36-24.26Q184.26-22.59 184.26-20.54L184.26-20.54L184.26-20.54Q184.26-18.05 183.33-16.06L183.33-16.06L183.33-16.06Q182.40-14.08 180.77-12.70L180.77-12.70L180.77-12.70Q179.14-11.33 176.93-10.59L176.93-10.59L176.93-10.59Q174.72-9.86 172.22-9.86L172.22-9.86L172.22-9.86Q171.01-9.86 169.63-10.14L169.63-10.14L169.63-10.14Q168.26-10.43 166.98-11.01L166.98-11.01L166.98-11.01Q164.54-9.47 164.54-7.42L164.54-7.42L164.54-7.42Q164.54-5.57 166.24-4.70L166.24-4.70L166.24-4.70Q167.94-3.84 171.01-3.84L171.01-3.84L177.98-3.84L177.98-3.84Q184-3.84 186.91-2.18L186.91-2.18L186.91-2.18Q189.82-0.51 189.82 3.46L189.82 3.46L189.82 3.46Q189.82 5.63 188.61 7.62L188.61 7.62L188.61 7.62Q187.39 9.60 185.15 11.07L185.15 11.07L185.15 11.07Q182.91 12.54 179.71 13.44L179.71 13.44L179.71 13.44Q176.51 14.34 172.54 14.34L172.54 14.34L172.54 14.34Q165.70 14.34 161.95 12.10L161.95 12.10L161.95 12.10Q158.21 9.86 158.21 5.70ZM172.22-13.38L172.22-13.38L172.22-13.38Q175.23-13.38 177.31-15.36L177.31-15.36L177.31-15.36Q179.39-17.34 179.39-20.74L179.39-20.74L179.39-20.74Q179.39-22.34 178.82-23.68L178.82-23.68L178.82-23.68Q178.24-25.02 177.28-25.98L177.28-25.98L177.28-25.98Q176.32-26.94 175.01-27.49L175.01-27.49L175.01-27.49Q173.70-28.03 172.22-28.03L172.22-28.03L172.22-28.03Q170.75-28.03 169.44-27.49L169.44-27.49L169.44-27.49Q168.13-26.94 167.17-25.98L167.17-25.98L167.17-25.98Q166.21-25.02 165.63-23.68L165.63-23.68L165.63-23.68Q165.06-22.34 165.06-20.74L165.06-20.74L165.06-20.74Q165.06-17.34 167.17-15.36L167.17-15.36L167.17-15.36Q169.28-13.38 172.22-13.38ZM197.18-8.06L197.18-8.06L197.18-8.06Q197.18-10.69 198.43-12.64L198.43-12.64L198.43-12.64Q199.68-14.59 202.40-16L202.40-16L202.40-16Q205.12-17.41 209.41-18.30L209.41-18.30L209.41-18.30Q213.70-19.20 219.71-19.71L219.71-19.71L219.71-19.71Q219.65-21.31 219.20-22.72L219.20-22.72L219.20-22.72Q218.75-24.13 217.79-25.18L217.79-25.18L217.79-25.18Q216.83-26.24 215.26-26.88L215.26-26.88L215.26-26.88Q213.70-27.52 211.46-27.52L211.46-27.52L211.46-27.52Q208.38-27.52 205.57-26.34L205.57-26.34L205.57-26.34Q202.75-25.15 200.58-23.81L200.58-23.81L198.53-27.39L198.53-27.39Q199.68-28.16 201.25-28.96L201.25-28.96L201.25-28.96Q202.82-29.76 204.58-30.40L204.58-30.40L204.58-30.40Q206.34-31.04 208.32-31.46L208.32-31.46L208.32-31.46Q210.30-31.87 212.35-31.87L212.35-31.87L212.35-31.87Q218.75-31.87 221.86-28.38L221.86-28.38L221.86-28.38Q224.96-24.90 224.96-19.07L224.96-19.07L224.96 0L220.67 0L220.22-4.22L220.03-4.22L220.03-4.22Q217.41-2.18 214.24-0.70L214.24-0.70L214.24-0.70Q211.07 0.77 207.74 0.77L207.74 0.77L207.74 0.77Q205.57 0.77 203.65 0.16L203.65 0.16L203.65 0.16Q201.73-0.45 200.29-1.57L200.29-1.57L200.29-1.57Q198.85-2.69 198.02-4.32L198.02-4.32L198.02-4.32Q197.18-5.95 197.18-8.06ZM202.30-8.45L202.30-8.45L202.30-8.45Q202.30-7.10 202.88-6.18L202.88-6.18L202.88-6.18Q203.46-5.25 204.38-4.64L204.38-4.64L204.38-4.64Q205.31-4.03 206.56-3.74L206.56-3.74L206.56-3.74Q207.81-3.46 209.15-3.46L209.15-3.46L209.15-3.46Q211.84-3.46 214.43-4.64L214.43-4.64L214.43-4.64Q217.02-5.82 219.71-8.06L219.71-8.06L219.71-16.26L219.71-16.26Q214.72-15.87 211.36-15.17L211.36-15.17L211.36-15.17Q208-14.46 205.98-13.47L205.98-13.47L205.98-13.47Q203.97-12.48 203.14-11.23L203.14-11.23L203.14-11.23Q202.30-9.98 202.30-8.45ZM236.35 0L236.35-31.10L240.70-31.10L241.15-25.79L241.41-25.79L241.41-25.79Q243.84-28.42 246.66-30.14L246.66-30.14L246.66-30.14Q249.47-31.87 253.12-31.87L253.12-31.87L253.12-31.87Q258.69-31.87 261.28-28.70L261.28-28.70L261.28-28.70Q263.87-25.54 263.87-19.33L263.87-19.33L263.87 0L258.62 0L258.62-18.62L258.62-18.62Q258.62-23.04 256.96-25.18L256.96-25.18L256.96-25.18Q255.30-27.33 251.46-27.33L251.46-27.33L251.46-27.33Q250.05-27.33 248.86-26.98L248.86-26.98L248.86-26.98Q247.68-26.62 246.53-25.92L246.53-25.92L246.53-25.92Q245.38-25.22 244.16-24.16L244.16-24.16L244.16-24.16Q242.94-23.10 241.60-21.70L241.60-21.70L241.60 0L236.35 0ZM281.98-12.10L281.98-26.82L273.22-26.82L273.22-30.78L282.18-31.10L282.88-39.81L287.23-39.81L287.23-31.10L302.53-31.10L302.53-26.82L287.23-26.82L287.23-12.03L287.23-12.03Q287.23-9.92 287.62-8.35L287.62-8.35L287.62-8.35Q288-6.78 288.90-5.70L288.90-5.70L288.90-5.70Q289.79-4.61 291.33-4.06L291.33-4.06L291.33-4.06Q292.86-3.52 295.10-3.52L295.10-3.52L295.10-3.52Q297.34-3.52 299.14-3.90L299.14-3.90L299.14-3.90Q300.93-4.29 302.59-4.93L302.59-4.93L303.74-1.09L303.74-1.09Q301.63-0.32 299.07 0.22L299.07 0.22L299.07 0.22Q296.51 0.77 293.95 0.77L293.95 0.77L293.95 0.77Q290.56 0.77 288.26-0.16L288.26-0.16L288.26-0.16Q285.95-1.09 284.58-2.78L284.58-2.78L284.58-2.78Q283.20-4.48 282.59-6.85L282.59-6.85L282.59-6.85Q281.98-9.22 281.98-12.10L281.98-12.10ZM339.52-31.10L339.52 0L335.23 0L334.78-5.44L334.53-5.44L334.53-5.44Q332.16-2.69 329.38-0.96L329.38-0.96L329.38-0.96Q326.59 0.77 322.94 0.77L322.94 0.77L322.94 0.77Q317.31 0.77 314.72-2.40L314.72-2.40L314.72-2.40Q312.13-5.57 312.13-11.78L312.13-11.78L312.13-31.10L317.44-31.10L317.44-12.48L317.44-12.48Q317.44-8.06 319.07-5.92L319.07-5.92L319.07-5.92Q320.70-3.78 324.61-3.78L324.61-3.78L324.61-3.78Q327.30-3.78 329.47-5.15L329.47-5.15L329.47-5.15Q331.65-6.53 334.27-9.54L334.27-9.54L334.27-31.10L339.52-31.10ZM350.78-8.06L350.78-8.06L350.78-8.06Q350.78-10.69 352.03-12.64L352.03-12.64L352.03-12.64Q353.28-14.59 356.00-16L356.00-16L356.00-16Q358.72-17.41 363.01-18.30L363.01-18.30L363.01-18.30Q367.30-19.20 373.31-19.71L373.31-19.71L373.31-19.71Q373.25-21.31 372.80-22.72L372.80-22.72L372.80-22.72Q372.35-24.13 371.39-25.18L371.39-25.18L371.39-25.18Q370.43-26.24 368.86-26.88L368.86-26.88L368.86-26.88Q367.30-27.52 365.06-27.52L365.06-27.52L365.06-27.52Q361.98-27.52 359.17-26.34L359.17-26.34L359.17-26.34Q356.35-25.15 354.18-23.81L354.18-23.81L352.13-27.39L352.13-27.39Q353.28-28.16 354.85-28.96L354.85-28.96L354.85-28.96Q356.42-29.76 358.18-30.40L358.18-30.40L358.18-30.40Q359.94-31.04 361.92-31.46L361.92-31.46L361.92-31.46Q363.90-31.87 365.95-31.87L365.95-31.87L365.95-31.87Q372.35-31.87 375.46-28.38L375.46-28.38L375.46-28.38Q378.56-24.90 378.56-19.07L378.56-19.07L378.56 0L374.27 0L373.82-4.22L373.63-4.22L373.63-4.22Q371.01-2.18 367.84-0.70L367.84-0.70L367.84-0.70Q364.67 0.77 361.34 0.77L361.34 0.77L361.34 0.77Q359.17 0.77 357.25 0.16L357.25 0.16L357.25 0.16Q355.33-0.45 353.89-1.57L353.89-1.57L353.89-1.57Q352.45-2.69 351.62-4.32L351.62-4.32L351.62-4.32Q350.78-5.95 350.78-8.06ZM355.90-8.45L355.90-8.45L355.90-8.45Q355.90-7.10 356.48-6.18L356.48-6.18L356.48-6.18Q357.06-5.25 357.98-4.64L357.98-4.64L357.98-4.64Q358.91-4.03 360.16-3.74L360.16-3.74L360.16-3.74Q361.41-3.46 362.75-3.46L362.75-3.46L362.75-3.46Q365.44-3.46 368.03-4.64L368.03-4.64L368.03-4.64Q370.62-5.82 373.31-8.06L373.31-8.06L373.31-16.26L373.31-16.26Q368.32-15.87 364.96-15.17L364.96-15.17L364.96-15.17Q361.60-14.46 359.58-13.47L359.58-13.47L359.58-13.47Q357.57-12.48 356.74-11.23L356.74-11.23L356.74-11.23Q355.90-9.98 355.90-8.45ZM389.95 0L389.95-31.10L394.30-31.10L394.75-25.79L395.01-25.79L395.01-25.79Q397.44-28.42 400.26-30.14L400.26-30.14L400.26-30.14Q403.07-31.87 406.72-31.87L406.72-31.87L406.72-31.87Q412.29-31.87 414.88-28.70L414.88-28.70L414.88-28.70Q417.47-25.54 417.47-19.33L417.47-19.33L417.47 0L412.22 0L412.22-18.62L412.22-18.62Q412.22-23.04 410.56-25.18L410.56-25.18L410.56-25.18Q408.90-27.33 405.06-27.33L405.06-27.33L405.06-27.33Q403.65-27.33 402.46-26.98L402.46-26.98L402.46-26.98Q401.28-26.62 400.13-25.92L400.13-25.92L400.13-25.92Q398.98-25.22 397.76-24.16L397.76-24.16L397.76-24.16Q396.54-23.10 395.20-21.70L395.20-21.70L395.20 0L389.95 0ZM425.98-4.80L428.61-8.26L428.61-8.26Q429.63-7.36 430.78-6.50L430.78-6.50L430.78-6.50Q431.94-5.63 433.31-4.99L433.31-4.99L433.31-4.99Q434.69-4.35 436.38-3.97L436.38-3.97L436.38-3.97Q438.08-3.58 440.13-3.58L440.13-3.58L440.13-3.58Q442.30-3.58 444.19-4.26L444.19-4.26L444.19-4.26Q446.08-4.93 447.49-6.14L447.49-6.14L447.49-6.14Q448.90-7.36 449.70-9.09L449.70-9.09L449.70-9.09Q450.50-10.82 450.50-12.93L450.50-12.93L450.50-12.93Q450.50-17.15 447.78-19.52L447.78-19.52L447.78-19.52Q445.06-21.89 440.45-21.89L440.45-21.89L440.45-21.89Q437.89-21.89 436.10-21.25L436.10-21.25L436.10-21.25Q434.30-20.61 432.13-19.39L432.13-19.39L429.31-21.18L430.66-40.83L453.76-40.83L453.76-36.29L435.33-36.29L434.24-24.19L434.24-24.19Q436.03-24.96 437.73-25.41L437.73-25.41L437.73-25.41Q439.42-25.86 441.79-25.86L441.79-25.86L441.79-25.86Q444.74-25.86 447.30-25.09L447.30-25.09L447.30-25.09Q449.86-24.32 451.74-22.75L451.74-22.75L451.74-22.75Q453.63-21.18 454.72-18.78L454.72-18.78L454.72-18.78Q455.81-16.38 455.81-13.06L455.81-13.06L455.81-13.06Q455.81-9.73 454.56-7.17L454.56-7.17L454.56-7.17Q453.31-4.61 451.20-2.85L451.20-2.85L451.20-2.85Q449.09-1.09 446.37-0.16L446.37-0.16L446.37-0.16Q443.65 0.77 440.70 0.77L440.70 0.77L440.70 0.77Q437.95 0.77 435.74 0.29L435.74 0.29L435.74 0.29Q433.54-0.19 431.78-0.96L431.78-0.96L431.78-0.96Q430.02-1.73 428.58-2.72L428.58-2.72L428.58-2.72Q427.14-3.71 425.98-4.80L425.98-4.80ZM467.58 0L467.58-45.57L472.83-45.57L472.83-14.72L473.09-14.72L489.86-31.10L495.87-31.10L483.46-18.75L497.54 0L491.65 0L480.19-15.55L472.83-8.45L472.83 0L467.58 0ZM529.92-23.23L529.92-19.26L506.05-3.07L506.05-8.13L525.31-21.12L525.31-21.38L506.05-34.37L506.05-39.42L529.92-23.23Z" fill="#444"></path></g></g><style>text {
  font-size: 64px;
  font-family: Arial Black;
  dominant-baseline: central;
  text-anchor: middle;
}</style></svg>